<mxfile host="app.diagrams.net" modified="2023-06-05T15:27:30.726Z" agent="Mozilla/5.0 (Windows NT 10.0; Win64; x64) AppleWebKit/537.36 (KHTML, like Gecko) Chrome/113.0.0.0 Safari/537.36" version="21.3.3" etag="4iKHwxaErNQ89v63Tkvi" type="github">
  <diagram name="PÃ¡gina-1" id="4kg18z0V7WkvskuCNW7o">
    <mxGraphModel>
      <root>
        <mxCell id="0" />
        <mxCell id="1" parent="0" />
      </root>
    </mxGraphModel>
  </diagram>
</mxfile>
